<svg width="360" height="360" viewBox="0 0 360 360" fill="none" xmlns="http://www.w3.org/2000/svg">
<rect width="360" height="360" fill="white"/>
<path d="M47.9078 184.75C48.3178 184.92 49.0178 185.14 49.8478 185.17C50.9178 185.18 52.2078 184.86 53.4178 183.65L87.2678 149.76L46.0678 108.69C45.5678 108.19 44.6978 108.54 44.6978 109.26V176.88L44.7578 180.04C44.7578 183.12 46.9678 184.37 47.9078 184.76V184.75Z" fill="#00AFAC"/>
<path d="M164.268 197.03C158.328 193.49 154.748 187.22 154.748 180.09V115.38C154.748 112.3 152.538 111.05 151.598 110.66C151.188 110.49 150.498 110.27 149.668 110.24C148.598 110.22 147.298 110.55 146.088 111.76L63.8978 194.04C60.0578 197.89 55.0978 199.91 49.9878 199.91C49.8678 199.91 49.7378 199.91 49.6178 199.91C49.4878 199.91 49.3678 199.91 49.2378 199.91C48.9178 199.9 48.5878 199.88 48.2578 199.85C47.9878 199.83 47.7078 199.79 47.4378 199.76C47.2778 199.74 47.1078 199.72 46.9478 199.69C46.6678 199.65 46.3978 199.6 46.1178 199.55C46.1178 199.55 46.0978 199.55 46.0878 199.55C44.7878 199.29 43.4878 198.91 42.2178 198.38C41.6678 198.15 41.1278 197.9 40.6078 197.63C40.1878 197.41 39.7878 197.96 40.1278 198.3L88.0378 246.21C95.7078 253.88 108.138 253.88 115.808 246.21C115.808 246.21 164.218 197.8 164.398 197.62C164.578 197.44 164.518 197.2 164.258 197.04L164.268 197.03Z" fill="#00AFAC"/>
<path d="M276.908 108.57C276.148 107.81 274.908 107.81 274.138 108.57L190.158 192.55L188.828 193.94C188.288 194.48 187.728 194.97 187.148 195.43C187.098 195.47 187.048 195.51 186.998 195.55C186.818 195.7 186.628 195.85 186.448 195.98C182.988 198.6 178.898 199.96 174.708 199.96C172.138 199.96 169.518 199.45 166.988 198.4C166.428 198.17 165.958 197.95 165.438 197.67C165.058 197.46 164.688 197.89 165.108 198.31C165.518 198.72 213.018 246.21 213.018 246.21C220.678 253.87 233.088 253.87 240.748 246.21L313.598 173.36C321.358 165.6 321.358 153.02 313.598 145.25L276.908 108.57Z" fill="#00AFAC"/>
</svg>
